<?xml version="1.0" encoding="UTF-8"?><!DOCTYPE svg PUBLIC '-//W3C//DTD SVG 1.0//EN'
        'http://www.w3.org/TR/2001/REC-SVG-20010904/DTD/svg10.dtd'>
<svg fill-opacity="1" color-rendering="auto" color-interpolation="auto" text-rendering="auto" stroke="black" stroke-linecap="square" width="530" stroke-miterlimit="10" shape-rendering="auto" stroke-opacity="1" fill="black" stroke-dasharray="none" font-weight="normal" stroke-width="1" viewBox="450 330 530 200" height="200" xmlns="http://www.w3.org/2000/svg" font-family="'Dialog'" font-style="normal" stroke-linejoin="miter" font-size="12px" stroke-dashoffset="0" image-rendering="auto"><!--Generated by the Batik Graphics2D SVG Generator-->
  <defs id="genericDefs"/>
  <g>
    <defs id="defs1">
      <clipPath clipPathUnits="userSpaceOnUse" id="clipPath1">
        <path d="M0 0 L2147483647 0 L2147483647 2147483647 L0 2147483647 L0 0 Z"/>
      </clipPath>
      <clipPath clipPathUnits="userSpaceOnUse" id="clipPath2">
        <path d="M0 0 L0 80 L230 80 L230 0 Z"/>
      </clipPath>
      <clipPath clipPathUnits="userSpaceOnUse" id="clipPath3">
        <path d="M0 0 L0 40 L50 40 L50 0 Z"/>
      </clipPath>
      <clipPath clipPathUnits="userSpaceOnUse" id="clipPath4">
        <path d="M0 0 L0 30 L150 30 L150 0 Z"/>
      </clipPath>
      <clipPath clipPathUnits="userSpaceOnUse" id="clipPath5">
        <path d="M0 0 L0 110 L100 110 L100 0 Z"/>
      </clipPath>
      <clipPath clipPathUnits="userSpaceOnUse" id="clipPath6">
        <path d="M0 0 L0 80 L100 80 L100 0 Z"/>
      </clipPath>
      <clipPath clipPathUnits="userSpaceOnUse" id="clipPath7">
        <path d="M0 0 L0 110 L80 110 L80 0 Z"/>
      </clipPath>
    </defs>
    <g fill="rgb(255,255,255)" fill-opacity="0" transform="translate(730,430)" stroke-opacity="0" stroke="rgb(255,255,255)">
      <rect x="0.5" y="0.5" clip-path="url(#clipPath2)" width="228.5" rx="16" ry="16" height="78.5" stroke="none"/>
    </g>
    <g transform="translate(730,430)">
      <rect x="0.5" y="0.5" clip-path="url(#clipPath2)" fill="none" width="228.5" rx="16" ry="16" height="78.5"/>
      <text x="5" font-size="14px" y="17.9688" clip-path="url(#clipPath2)" font-family="sans-serif" stroke="none" xml:space="preserve">Spring Proxy</text>
    </g>
    <g fill="rgb(255,255,255)" fill-opacity="0" transform="translate(740,460)" stroke-opacity="0" stroke="rgb(255,255,255)">
      <rect x="0.5" width="48.5" height="38.5" y="0.5" clip-path="url(#clipPath3)" stroke="none"/>
    </g>
    <g fill="red" transform="translate(740,460)" stroke="red">
      <rect fill="none" x="0.5" width="48.5" height="38.5" y="0.5" clip-path="url(#clipPath3)"/>
      <text x="8" font-size="14px" y="17.9688" clip-path="url(#clipPath3)" font-family="sans-serif" stroke="none" xml:space="preserve">Extra</text>
      <text x="8" font-size="14px" y="33.9375" clip-path="url(#clipPath3)" font-family="sans-serif" stroke="none" xml:space="preserve">Logic</text>
    </g>
    <g fill="rgb(255,255,255)" fill-opacity="0" transform="translate(480,460)" stroke-opacity="0" stroke="rgb(255,255,255)">
      <rect x="0.5" width="48.5" height="38.5" y="0.5" clip-path="url(#clipPath3)" stroke="none"/>
    </g>
    <g fill="red" transform="translate(480,460)" stroke="red">
      <rect fill="none" x="0.5" width="48.5" height="38.5" y="0.5" clip-path="url(#clipPath3)"/>
      <text x="8" font-size="14px" y="17.9688" clip-path="url(#clipPath3)" font-family="sans-serif" stroke="none" xml:space="preserve">Extra</text>
      <text x="8" font-size="14px" y="33.9375" clip-path="url(#clipPath3)" font-family="sans-serif" stroke="none" xml:space="preserve">Logic</text>
    </g>
    <g fill="rgb(140,211,225)" fill-opacity="0.4902" transform="translate(540,460)" stroke-opacity="0.4902" stroke="rgb(140,211,225)">
      <rect x="0.5" width="148.5" height="28.5" y="0.5" clip-path="url(#clipPath4)" stroke="none"/>
    </g>
    <g transform="translate(540,460)">
      <rect fill="none" x="0.5" width="148.5" height="28.5" y="0.5" clip-path="url(#clipPath4)"/>
      <text x="12" font-size="14px" y="17.9688" clip-path="url(#clipPath4)" font-family="sans-serif" stroke="none" xml:space="preserve">TransferServiceImpl</text>
    </g>
    <g fill="rgb(140,211,225)" fill-opacity="0.4902" transform="translate(790,350)" stroke-opacity="0.4902" stroke="rgb(140,211,225)">
      <rect x="0.5" width="148.5" height="28.5" y="0.5" clip-path="url(#clipPath4)" stroke="none"/>
    </g>
    <g transform="translate(790,350)">
      <rect fill="none" x="0.5" width="148.5" height="28.5" y="0.5" clip-path="url(#clipPath4)"/>
      <text x="12" font-size="14px" y="17.9688" clip-path="url(#clipPath4)" font-family="sans-serif" stroke="none" xml:space="preserve">TransferServiceImpl</text>
    </g>
    <g fill="rgb(255,255,255)" fill-opacity="0" transform="translate(470,430)" stroke-opacity="0" stroke="rgb(255,255,255)">
      <rect x="0.5" y="0.5" clip-path="url(#clipPath2)" width="228.5" rx="16" ry="16" height="78.5" stroke="none"/>
    </g>
    <g transform="translate(470,430)">
      <rect x="0.5" y="0.5" clip-path="url(#clipPath2)" fill="none" width="228.5" rx="16" ry="16" height="78.5"/>
      <text x="5" font-size="14px" y="17.9688" clip-path="url(#clipPath2)" font-family="sans-serif" stroke="none" xml:space="preserve">Spring Proxy</text>
    </g>
    <g fill="rgb(140,211,225)" fill-opacity="0.4902" transform="translate(800,460)" stroke-opacity="0.4902" stroke="rgb(140,211,225)">
      <rect x="0.5" width="148.5" height="28.5" y="0.5" clip-path="url(#clipPath4)" stroke="none"/>
    </g>
    <g transform="translate(800,460)">
      <rect fill="none" x="0.5" width="148.5" height="28.5" y="0.5" clip-path="url(#clipPath4)"/>
      <text x="12" font-size="14px" y="17.9688" clip-path="url(#clipPath4)" font-family="sans-serif" stroke="none" xml:space="preserve">TransferServiceImpl</text>
    </g>
    <g fill="rgb(145,203,123)" fill-opacity="0.4902" transform="translate(500,350)" stroke-opacity="0.4902" stroke="rgb(145,203,123)">
      <rect x="0.5" width="148.5" height="28.5" y="0.5" clip-path="url(#clipPath4)" stroke="none"/>
    </g>
    <g transform="translate(500,350)">
      <rect fill="none" x="0.5" width="148.5" height="28.5" y="0.5" clip-path="url(#clipPath4)"/>
      <text x="25" font-size="14px" y="17.9688" clip-path="url(#clipPath4)" font-family="sans-serif" stroke="none" xml:space="preserve">TransferService</text>
    </g>
    <g transform="translate(620,370)">
      <path fill="none" d="M10.5 11.5 L10.5 90.5" clip-path="url(#clipPath5)"/>
      <path fill="none" d="M4 22.2583 L10.5 11 L17 22.2583" clip-path="url(#clipPath5)"/>
      <text x="14" font-size="14px" y="57.9844" clip-path="url(#clipPath5)" font-family="sans-serif" stroke="none" xml:space="preserve">implements</text>
    </g>
    <g transform="translate(520,370)">
      <path fill="none" d="M10.5 11.5 L10.5 60.5" clip-path="url(#clipPath6)"/>
      <path fill="none" d="M4 22.2583 L10.5 11 L17 22.2583" clip-path="url(#clipPath6)"/>
      <text x="14" font-size="14px" y="42.9844" clip-path="url(#clipPath6)" font-family="sans-serif" stroke="none" xml:space="preserve">implements</text>
    </g>
    <g transform="translate(860,370)">
      <path fill="none" d="M10.5 11.5 L10.5 90.5" clip-path="url(#clipPath7)"/>
      <path fill="white" d="M4 22.2583 L10.5 11 L17 22.2583 Z" clip-path="url(#clipPath7)" stroke="none"/>
      <path fill="none" d="M4 22.2583 L10.5 11 L17 22.2583 Z" clip-path="url(#clipPath7)"/>
      <text x="14" font-size="14px" y="57.9844" clip-path="url(#clipPath7)" font-family="sans-serif" stroke="none" xml:space="preserve">extends</text>
    </g>
  </g>
</svg>
