<?xml version="1.0" encoding="UTF-8"?><!DOCTYPE svg PUBLIC '-//W3C//DTD SVG 1.0//EN'
        'http://www.w3.org/TR/2001/REC-SVG-20010904/DTD/svg10.dtd'>
<svg fill-opacity="1" color-rendering="auto" color-interpolation="auto" text-rendering="auto" stroke="black" stroke-linecap="square" width="500" stroke-miterlimit="10" shape-rendering="auto" stroke-opacity="1" fill="black" stroke-dasharray="none" font-weight="normal" stroke-width="1" viewBox="300 70 500 480" height="480" xmlns="http://www.w3.org/2000/svg" font-family="'Dialog'" font-style="normal" stroke-linejoin="miter" font-size="12px" stroke-dashoffset="0" image-rendering="auto"><!--Generated by the Batik Graphics2D SVG Generator-->
  <defs id="genericDefs"/>
  <g>
    <defs id="defs1">
      <clipPath clipPathUnits="userSpaceOnUse" id="clipPath1">
        <path d="M0 0 L2147483647 0 L2147483647 2147483647 L0 2147483647 L0 0 Z"/>
      </clipPath>
      <clipPath clipPathUnits="userSpaceOnUse" id="clipPath2">
        <path d="M0 0 L0 20 L90 20 L90 0 Z"/>
      </clipPath>
      <clipPath clipPathUnits="userSpaceOnUse" id="clipPath3">
        <path d="M0 0 L0 40 L240 40 L240 0 Z"/>
      </clipPath>
      <clipPath clipPathUnits="userSpaceOnUse" id="clipPath4">
        <path d="M0 0 L0 40 L120 40 L120 0 Z"/>
      </clipPath>
      <clipPath clipPathUnits="userSpaceOnUse" id="clipPath5">
        <path d="M0 0 L0 40 L100 40 L100 0 Z"/>
      </clipPath>
      <clipPath clipPathUnits="userSpaceOnUse" id="clipPath6">
        <path d="M0 0 L0 70 L240 70 L240 0 Z"/>
      </clipPath>
      <clipPath clipPathUnits="userSpaceOnUse" id="clipPath7">
        <path d="M0 0 L0 20 L120 20 L120 0 Z"/>
      </clipPath>
      <clipPath clipPathUnits="userSpaceOnUse" id="clipPath8">
        <path d="M0 0 L0 70 L180 70 L180 0 Z"/>
      </clipPath>
      <clipPath clipPathUnits="userSpaceOnUse" id="clipPath9">
        <path d="M0 0 L0 20 L110 20 L110 0 Z"/>
      </clipPath>
      <clipPath clipPathUnits="userSpaceOnUse" id="clipPath10">
        <path d="M0 0 L0 40 L130 40 L130 0 Z"/>
      </clipPath>
      <clipPath clipPathUnits="userSpaceOnUse" id="clipPath11">
        <path d="M0 0 L0 50 L120 50 L120 0 Z"/>
      </clipPath>
      <clipPath clipPathUnits="userSpaceOnUse" id="clipPath12">
        <path d="M0 0 L0 70 L30 70 L30 0 Z"/>
      </clipPath>
      <clipPath clipPathUnits="userSpaceOnUse" id="clipPath13">
        <path d="M0 0 L0 70 L90 70 L90 0 Z"/>
      </clipPath>
      <clipPath clipPathUnits="userSpaceOnUse" id="clipPath14">
        <path d="M0 0 L0 40 L150 40 L150 0 Z"/>
      </clipPath>
      <clipPath clipPathUnits="userSpaceOnUse" id="clipPath15">
        <path d="M0 0 L0 70 L50 70 L50 0 Z"/>
      </clipPath>
      <clipPath clipPathUnits="userSpaceOnUse" id="clipPath16">
        <path d="M0 0 L0 40 L190 40 L190 0 Z"/>
      </clipPath>
      <clipPath clipPathUnits="userSpaceOnUse" id="clipPath17">
        <path d="M0 0 L0 90 L30 90 L30 0 Z"/>
      </clipPath>
      <clipPath clipPathUnits="userSpaceOnUse" id="clipPath18">
        <path d="M0 0 L0 160 L40 160 L40 0 Z"/>
      </clipPath>
      <clipPath clipPathUnits="userSpaceOnUse" id="clipPath19">
        <path d="M0 0 L0 40 L110 40 L110 0 Z"/>
      </clipPath>
      <clipPath clipPathUnits="userSpaceOnUse" id="clipPath20">
        <path d="M0 0 L0 80 L40 80 L40 0 Z"/>
      </clipPath>
    </defs>
    <g fill="rgb(255,255,255)" fill-opacity="0" transform="translate(490,320)" stroke-opacity="0" stroke="rgb(255,255,255)">
      <rect x="0.5" y="0.5" clip-path="url(#clipPath2)" width="88.5" rx="4" ry="4" height="18.5" stroke="none"/>
    </g>
    <g transform="translate(490,320)">
      <rect x="0.5" y="0.5" clip-path="url(#clipPath2)" fill="none" width="88.5" rx="4" ry="4" height="18.5"/>
      <text x="20" font-size="10px" y="13.1328" clip-path="url(#clipPath2)" font-family="sans-serif" stroke="none" xml:space="preserve">JpaVendor</text>
    </g>
    <g fill="rgb(255,255,255)" fill-opacity="0" transform="translate(540,490)" stroke-opacity="0" stroke="rgb(255,255,255)">
      <rect x="0.5" y="0.5" clip-path="url(#clipPath3)" width="238.5" rx="8" ry="8" height="38.5" stroke="none"/>
    </g>
    <g transform="translate(540,490)">
      <rect x="0.5" y="0.5" clip-path="url(#clipPath3)" fill="none" width="238.5" rx="8" ry="8" height="38.5"/>
      <text x="86" font-size="10px" y="14.5" clip-path="url(#clipPath3)" font-family="sans-serif" stroke="none" xml:space="preserve">EmAnnoConfig</text>
      <path fill="none" d="M1 20.5 L239 20.5" clip-path="url(#clipPath3)"/>
      <text x="5" font-size="10px" y="31.7656" clip-path="url(#clipPath3)" font-family="sans-serif" stroke="none" xml:space="preserve">PersistenceAnnotationBeanPostProcessor</text>
    </g>
    <g fill="rgb(255,255,255)" fill-opacity="0" transform="translate(320,490)" stroke-opacity="0" stroke="rgb(255,255,255)">
      <rect x="0.5" y="0.5" clip-path="url(#clipPath4)" width="118.5" rx="8" ry="8" height="38.5" stroke="none"/>
    </g>
    <g transform="translate(320,490)">
      <rect x="0.5" y="0.5" clip-path="url(#clipPath4)" fill="none" width="118.5" rx="8" ry="8" height="38.5"/>
      <text x="36" font-size="10px" y="14.5" clip-path="url(#clipPath4)" font-family="sans-serif" stroke="none" xml:space="preserve">AppConfig</text>
      <path fill="none" d="M1 20.5 L119 20.5" clip-path="url(#clipPath4)"/>
      <text x="5" font-size="10px" y="31.7656" clip-path="url(#clipPath4)" font-family="sans-serif" stroke="none" xml:space="preserve">@ComponentScan</text>
    </g>
    <g fill="rgb(255,255,255)" fill-opacity="0" transform="translate(320,380)" stroke-opacity="0" stroke="rgb(255,255,255)">
      <rect x="0.5" y="0.5" clip-path="url(#clipPath5)" width="98.5" rx="8" ry="8" height="38.5" stroke="none"/>
    </g>
    <g transform="translate(320,380)">
      <rect x="0.5" y="0.5" clip-path="url(#clipPath5)" fill="none" width="98.5" rx="8" ry="8" height="38.5"/>
      <text x="17" font-size="10px" y="14.5" clip-path="url(#clipPath5)" font-family="sans-serif" stroke="none" xml:space="preserve">FruitJavaRepo</text>
      <path fill="none" d="M1 20.5 L99 20.5" clip-path="url(#clipPath5)"/>
      <text x="5" font-size="10px" y="31.7656" clip-path="url(#clipPath5)" font-family="sans-serif" stroke="none" xml:space="preserve">em: EntityManager</text>
    </g>
    <g fill="rgb(255,255,255)" fill-opacity="0" transform="translate(540,380)" stroke-opacity="0" stroke="rgb(255,255,255)">
      <rect x="0.5" y="0.5" clip-path="url(#clipPath6)" width="238.5" rx="14" ry="14" height="68.5" stroke="none"/>
    </g>
    <g transform="translate(540,380)">
      <rect x="0.5" y="0.5" clip-path="url(#clipPath6)" fill="none" width="238.5" rx="14" ry="14" height="68.5"/>
      <text x="87" font-size="10px" y="23.3672" clip-path="url(#clipPath6)" font-family="sans-serif" stroke="none" xml:space="preserve">EmJavaConfig</text>
      <path fill="none" d="M1 29.3672 L239 29.3672" clip-path="url(#clipPath6)"/>
      <text x="5" font-size="10px" y="40.6328" clip-path="url(#clipPath6)" font-family="sans-serif" stroke="none" xml:space="preserve">emf: LocalContainerEntityManagerFactoryBean</text>
      <text x="5" font-size="10px" y="52.8984" clip-path="url(#clipPath6)" font-family="sans-serif" stroke="none" xml:space="preserve">? PropertySourcesPlaceholderConfigurer</text>
      <text x="5" font-size="10px" y="65.1641" clip-path="url(#clipPath6)" font-family="sans-serif" stroke="none" xml:space="preserve">? PersistenceExceptionTranslationPostProcessor</text>
    </g>
    <g fill="rgb(255,255,255)" fill-opacity="0" transform="translate(320,270)" stroke-opacity="0" stroke="rgb(255,255,255)">
      <rect x="0.5" y="0.5" clip-path="url(#clipPath7)" width="118.5" rx="4" ry="4" height="18.5" stroke="none"/>
    </g>
    <g transform="translate(320,270)">
      <rect x="0.5" y="0.5" clip-path="url(#clipPath7)" fill="none" width="118.5" rx="4" ry="4" height="18.5"/>
      <text x="11" font-size="10px" y="13.1328" clip-path="url(#clipPath7)" font-family="sans-serif" stroke="none" xml:space="preserve">FruitTxTemplateRepo</text>
    </g>
    <g fill="rgb(255,255,255)" fill-opacity="0" transform="translate(600,270)" stroke-opacity="0" stroke="rgb(255,255,255)">
      <rect x="0.5" y="0.5" clip-path="url(#clipPath8)" width="178.5" rx="14" ry="14" height="68.5" stroke="none"/>
    </g>
    <g transform="translate(600,270)">
      <rect x="0.5" y="0.5" clip-path="url(#clipPath8)" fill="none" width="178.5" rx="14" ry="14" height="68.5"/>
      <text x="69" font-size="10px" y="20.8672" clip-path="url(#clipPath8)" font-family="sans-serif" stroke="none" xml:space="preserve">TxConfig</text>
      <path fill="none" d="M1 26.8672 L179 26.8672" clip-path="url(#clipPath8)"/>
      <text x="5" font-size="10px" y="38.1328" clip-path="url(#clipPath8)" font-family="sans-serif" stroke="none" xml:space="preserve">@EnableTransactionManagement</text>
      <path fill="none" d="M1 44.1328 L179 44.1328" clip-path="url(#clipPath8)"/>
      <text x="5" font-size="10px" y="55.3984" clip-path="url(#clipPath8)" font-family="sans-serif" stroke="none" xml:space="preserve">txDs : PlatformTransactionManager</text>
      <text x="5" font-size="10px" y="67.6641" clip-path="url(#clipPath8)" font-family="sans-serif" stroke="none" xml:space="preserve">txJdbcT... : JdbcTemplate</text>
    </g>
    <g fill="rgb(255,255,255)" fill-opacity="0" transform="translate(320,190)" stroke-opacity="0" stroke="rgb(255,255,255)">
      <rect x="0.5" y="0.5" clip-path="url(#clipPath9)" width="108.5" rx="4" ry="4" height="18.5" stroke="none"/>
    </g>
    <g transform="translate(320,190)">
      <rect x="0.5" y="0.5" clip-path="url(#clipPath9)" fill="none" width="108.5" rx="4" ry="4" height="18.5"/>
      <text x="12" font-size="10px" y="13.1328" clip-path="url(#clipPath9)" font-family="sans-serif" stroke="none" xml:space="preserve">FruitTemplateRepo</text>
    </g>
    <g fill="rgb(255,255,255)" fill-opacity="0" transform="translate(510,190)" stroke-opacity="0" stroke="rgb(255,255,255)">
      <rect x="0.5" y="0.5" clip-path="url(#clipPath10)" width="128.5" rx="8" ry="8" height="38.5" stroke="none"/>
    </g>
    <g transform="translate(510,190)">
      <rect x="0.5" y="0.5" clip-path="url(#clipPath10)" fill="none" width="128.5" rx="8" ry="8" height="38.5"/>
      <text x="29" font-size="10px" y="14.5" clip-path="url(#clipPath10)" font-family="sans-serif" stroke="none" xml:space="preserve">TemplateConfig</text>
      <path fill="none" d="M1 20.5 L129 20.5" clip-path="url(#clipPath10)"/>
      <text x="5" font-size="10px" y="31.7656" clip-path="url(#clipPath10)" font-family="sans-serif" stroke="none" xml:space="preserve">jdbcT... : JdbcTemplate</text>
    </g>
    <g fill="rgb(255,255,255)" fill-opacity="0" transform="translate(580,90)" stroke-opacity="0" stroke="rgb(255,255,255)">
      <rect x="0.5" y="0.5" clip-path="url(#clipPath11)" width="118.5" rx="10" ry="10" height="48.5" stroke="none"/>
    </g>
    <g transform="translate(580,90)">
      <rect x="0.5" y="0.5" clip-path="url(#clipPath11)" fill="none" width="118.5" rx="10" ry="10" height="48.5"/>
      <text x="19" font-size="10px" y="17" clip-path="url(#clipPath11)" font-family="sans-serif" stroke="none" xml:space="preserve">DataSourceConfig</text>
      <path fill="none" d="M1 23 L119 23" clip-path="url(#clipPath11)"/>
      <text x="5" font-size="10px" y="34.2656" clip-path="url(#clipPath11)" font-family="sans-serif" stroke="none" xml:space="preserve">@PropertySource</text>
      <path fill="none" d="M1 40.2656 L119 40.2656" clip-path="url(#clipPath11)"/>
    </g>
    <g stroke-dasharray="8,5" stroke-miterlimit="5" transform="translate(550,330)" stroke-linecap="butt">
      <path fill="none" d="M10.5 11.5 L10.5 50.5" clip-path="url(#clipPath12)"/>
      <path fill="none" stroke-miterlimit="10" stroke-dasharray="none" d="M4 22.2583 L10.5 11 L17 22.2583" clip-path="url(#clipPath12)" stroke-linecap="square"/>
    </g>
    <g transform="translate(660,440)">
      <path fill="none" d="M10.5 11.5 L10.5 50.5" clip-path="url(#clipPath13)"/>
      <path fill="white" d="M4 22.2583 L10.5 11 L17 22.2583 Z" clip-path="url(#clipPath13)" stroke="none"/>
      <path fill="none" d="M4 22.2583 L10.5 11 L17 22.2583 Z" clip-path="url(#clipPath13)"/>
      <text x="14" font-size="10px" y="36.1328" clip-path="url(#clipPath13)" font-family="sans-serif" stroke="none" xml:space="preserve">Ouf of Scope.</text>
    </g>
    <g stroke-dasharray="8,5" stroke-miterlimit="5" transform="translate(410,370)" stroke-linecap="butt">
      <path fill="none" d="M129.5 20.5 L10.5 20.5" clip-path="url(#clipPath14)"/>
      <path fill="none" stroke-miterlimit="10" stroke-dasharray="none" d="M118.7417 14 L130 20.5 L118.7417 27" clip-path="url(#clipPath14)" stroke-linecap="square"/>
    </g>
    <g font-family="sans-serif" font-size="10px" transform="translate(410,370)">
      <text x="21.0913" xml:space="preserve" y="16" clip-path="url(#clipPath14)" stroke="none">EntityManagerFactory</text>
    </g>
    <g stroke-dasharray="8,5" stroke-miterlimit="5" transform="translate(660,330)" stroke-linecap="butt">
      <path fill="none" d="M10.5 11.5 L10.5 50.5" clip-path="url(#clipPath15)"/>
      <path fill="none" stroke-miterlimit="10" stroke-dasharray="none" d="M4 22.2583 L10.5 11 L17 22.2583" clip-path="url(#clipPath15)" stroke-linecap="square"/>
    </g>
    <g font-family="sans-serif" font-size="10px" transform="translate(660,330)">
      <text x="14" xml:space="preserve" y="36.1328" clip-path="url(#clipPath15)" stroke="none">txDs</text>
    </g>
    <g stroke-dasharray="8,5" stroke-miterlimit="5" transform="translate(430,260)" stroke-linecap="butt">
      <path fill="none" d="M169.5 20.5 L10.5 20.5" clip-path="url(#clipPath16)"/>
      <path fill="none" stroke-miterlimit="10" stroke-dasharray="none" d="M158.7417 14 L170 20.5 L158.7417 27" clip-path="url(#clipPath16)" stroke-linecap="square"/>
    </g>
    <g font-family="sans-serif" font-size="10px" transform="translate(430,260)">
      <text x="54.707" xml:space="preserve" y="16" clip-path="url(#clipPath16)" stroke="none">txJdbcTemplate</text>
    </g>
    <g transform="translate(360,200)">
      <path fill="none" d="M10.5 11.5 L10.5 70.5" clip-path="url(#clipPath17)"/>
      <path fill="white" d="M4 22.2583 L10.5 11 L17 22.2583 Z" clip-path="url(#clipPath17)" stroke="none"/>
      <path fill="none" d="M4 22.2583 L10.5 11 L17 22.2583 Z" clip-path="url(#clipPath17)"/>
    </g>
    <g stroke-dasharray="8,5" stroke-miterlimit="5" transform="translate(660,130)" stroke-linecap="butt">
      <path fill="none" d="M10.5 11.5 L10.5 140.5" clip-path="url(#clipPath18)"/>
      <path fill="none" stroke-miterlimit="10" stroke-dasharray="none" d="M4 22.2583 L10.5 11 L17 22.2583" clip-path="url(#clipPath18)" stroke-linecap="square"/>
    </g>
    <g font-family="sans-serif" font-size="10px" transform="translate(660,130)">
      <text x="14" xml:space="preserve" y="81.1328" clip-path="url(#clipPath18)" stroke="none">ds</text>
    </g>
    <g stroke-dasharray="8,5" stroke-miterlimit="5" transform="translate(420,180)" stroke-linecap="butt">
      <path fill="none" d="M89.5 20.5 L10.5 20.5" clip-path="url(#clipPath19)"/>
      <path fill="none" stroke-miterlimit="10" stroke-dasharray="none" d="M78.7417 14 L90 20.5 L78.7417 27" clip-path="url(#clipPath19)" stroke-linecap="square"/>
    </g>
    <g font-family="sans-serif" font-size="10px" transform="translate(420,180)">
      <text x="19.9854" xml:space="preserve" y="16" clip-path="url(#clipPath19)" stroke="none">jdbcTemplate</text>
    </g>
    <g stroke-dasharray="8,5" stroke-miterlimit="5" transform="translate(610,130)" stroke-linecap="butt">
      <path fill="none" d="M10.5 11.5 L10.5 60.5" clip-path="url(#clipPath20)"/>
      <path fill="none" stroke-miterlimit="10" stroke-dasharray="none" d="M4 22.2583 L10.5 11 L17 22.2583" clip-path="url(#clipPath20)" stroke-linecap="square"/>
    </g>
    <g font-family="sans-serif" font-size="10px" transform="translate(610,130)">
      <text x="14" xml:space="preserve" y="41.1328" clip-path="url(#clipPath20)" stroke="none">ds</text>
    </g>
  </g>
</svg>
