<?xml version="1.0" encoding="UTF-8"?><!DOCTYPE svg PUBLIC '-//W3C//DTD SVG 1.0//EN'
        'http://www.w3.org/TR/2001/REC-SVG-20010904/DTD/svg10.dtd'>
<svg fill-opacity="1" color-rendering="auto" color-interpolation="auto" text-rendering="auto" stroke="black" stroke-linecap="square" width="530" stroke-miterlimit="10" shape-rendering="auto" stroke-opacity="1" fill="black" stroke-dasharray="none" font-weight="normal" stroke-width="1" viewBox="240 220 530 370" height="370" xmlns="http://www.w3.org/2000/svg" font-family="'Dialog'" font-style="normal" stroke-linejoin="miter" font-size="12px" stroke-dashoffset="0" image-rendering="auto"><!--Generated by the Batik Graphics2D SVG Generator-->
  <defs id="genericDefs"/>
  <g>
    <defs id="defs1">
      <clipPath clipPathUnits="userSpaceOnUse" id="clipPath1">
        <path d="M0 0 L2147483647 0 L2147483647 2147483647 L0 2147483647 L0 0 Z"/>
      </clipPath>
      <clipPath clipPathUnits="userSpaceOnUse" id="clipPath2">
        <path d="M0 0 L0 30 L210 30 L210 0 Z"/>
      </clipPath>
      <clipPath clipPathUnits="userSpaceOnUse" id="clipPath3">
        <path d="M0 0 L0 30 L250 30 L250 0 Z"/>
      </clipPath>
      <clipPath clipPathUnits="userSpaceOnUse" id="clipPath4">
        <path d="M0 0 L0 30 L200 30 L200 0 Z"/>
      </clipPath>
      <clipPath clipPathUnits="userSpaceOnUse" id="clipPath5">
        <path d="M0 0 L0 30 L130 30 L130 0 Z"/>
      </clipPath>
      <clipPath clipPathUnits="userSpaceOnUse" id="clipPath6">
        <path d="M0 0 L0 30 L160 30 L160 0 Z"/>
      </clipPath>
      <clipPath clipPathUnits="userSpaceOnUse" id="clipPath7">
        <path d="M0 0 L0 50 L30 50 L30 0 Z"/>
      </clipPath>
      <clipPath clipPathUnits="userSpaceOnUse" id="clipPath8">
        <path d="M0 0 L0 30 L150 30 L150 0 Z"/>
      </clipPath>
    </defs>
    <g fill="rgb(140,211,225)" fill-opacity="0.4902" transform="translate(540,540)" stroke-opacity="0.4902" stroke="rgb(140,211,225)">
      <rect x="0.5" y="0.5" clip-path="url(#clipPath2)" width="208.5" rx="6" ry="6" height="28.5" stroke="none"/>
    </g>
    <g transform="translate(540,540)">
      <rect x="0.5" y="0.5" clip-path="url(#clipPath2)" fill="none" width="208.5" rx="6" ry="6" height="28.5"/>
      <text x="8" font-size="14px" y="19.9844" clip-path="url(#clipPath2)" font-family="sans-serif" stroke="none" xml:space="preserve">QuerydslJpaRepository&lt;T, ID&gt;</text>
    </g>
    <g fill="rgb(145,203,123)" fill-opacity="0.4902" transform="translate(500,440)" stroke-opacity="0.4902" stroke="rgb(145,203,123)">
      <rect x="0.5" y="0.5" clip-path="url(#clipPath3)" width="248.5" rx="6" ry="6" height="28.5" stroke="none"/>
    </g>
    <g transform="translate(500,440)">
      <rect x="0.5" y="0.5" clip-path="url(#clipPath3)" fill="none" width="248.5" rx="6" ry="6" height="28.5"/>
      <text x="9" font-size="14px" y="19.9844" clip-path="url(#clipPath3)" font-family="sans-serif" stroke="none" xml:space="preserve">JpaRepositoryImplementation&lt;T, ID&gt;</text>
    </g>
    <g fill="rgb(140,211,225)" fill-opacity="0.4902" transform="translate(550,490)" stroke-opacity="0.4902" stroke="rgb(140,211,225)">
      <rect x="0.5" y="0.5" clip-path="url(#clipPath4)" width="198.5" rx="6" ry="6" height="28.5" stroke="none"/>
    </g>
    <g transform="translate(550,490)">
      <rect x="0.5" y="0.5" clip-path="url(#clipPath4)" fill="none" width="198.5" rx="6" ry="6" height="28.5"/>
      <text x="10" font-size="14px" y="19.9844" clip-path="url(#clipPath4)" font-family="sans-serif" stroke="none" xml:space="preserve">SimpleJpaRepository&lt;T, ID&gt;</text>
    </g>
    <g fill="rgb(145,203,123)" fill-opacity="0.4902" transform="translate(260,390)" stroke-opacity="0.4902" stroke="rgb(145,203,123)">
      <rect x="0.5" y="0.5" clip-path="url(#clipPath2)" width="208.5" rx="6" ry="6" height="28.5" stroke="none"/>
    </g>
    <g transform="translate(260,390)">
      <rect x="0.5" y="0.5" clip-path="url(#clipPath2)" fill="none" width="208.5" rx="6" ry="6" height="28.5"/>
      <text x="10" font-size="14px" y="19.9844" clip-path="url(#clipPath2)" font-family="sans-serif" stroke="none" xml:space="preserve">QueryByExampleExecutor&lt;T&gt;</text>
    </g>
    <g fill="rgb(145,203,123)" fill-opacity="0.4902" transform="translate(500,340)" stroke-opacity="0.4902" stroke="rgb(145,203,123)">
      <rect x="0.5" y="0.5" clip-path="url(#clipPath3)" width="248.5" rx="6" ry="6" height="28.5" stroke="none"/>
    </g>
    <g transform="translate(500,340)">
      <rect x="0.5" y="0.5" clip-path="url(#clipPath3)" fill="none" width="248.5" rx="6" ry="6" height="28.5"/>
      <text x="13" font-size="14px" y="19.9844" clip-path="url(#clipPath3)" font-family="sans-serif" stroke="none" xml:space="preserve">PagingAndSortingRepository&lt;T,ID&gt;</text>
    </g>
    <g fill="rgb(145,203,123)" fill-opacity="0.4902" transform="translate(620,240)" stroke-opacity="0.4902" stroke="rgb(145,203,123)">
      <rect x="0.5" y="0.5" clip-path="url(#clipPath5)" width="128.5" rx="6" ry="6" height="28.5" stroke="none"/>
    </g>
    <g transform="translate(620,240)">
      <rect x="0.5" y="0.5" clip-path="url(#clipPath5)" fill="none" width="128.5" rx="6" ry="6" height="28.5"/>
      <text x="10" font-size="14px" y="19.9844" clip-path="url(#clipPath5)" font-family="sans-serif" stroke="none" xml:space="preserve">Repository&lt;T,ID&gt;</text>
    </g>
    <g fill="rgb(145,203,123)" fill-opacity="0.4902" transform="translate(590,290)" stroke-opacity="0.4902" stroke="rgb(145,203,123)">
      <rect x="0.5" y="0.5" clip-path="url(#clipPath6)" width="158.5" rx="6" ry="6" height="28.5" stroke="none"/>
    </g>
    <g transform="translate(590,290)">
      <rect x="0.5" y="0.5" clip-path="url(#clipPath6)" fill="none" width="158.5" rx="6" ry="6" height="28.5"/>
      <text x="9" font-size="14px" y="19.9844" clip-path="url(#clipPath6)" font-family="sans-serif" stroke="none" xml:space="preserve">CrudRepository&lt;T,ID&gt;</text>
    </g>
    <g fill="rgb(145,203,123)" fill-opacity="0.4902" transform="translate(590,390)" stroke-opacity="0.4902" stroke="rgb(145,203,123)">
      <rect x="0.5" y="0.5" clip-path="url(#clipPath6)" width="158.5" rx="6" ry="6" height="28.5" stroke="none"/>
    </g>
    <g transform="translate(590,390)">
      <rect x="0.5" y="0.5" clip-path="url(#clipPath6)" fill="none" width="158.5" rx="6" ry="6" height="28.5"/>
      <text x="13" font-size="14px" y="19.9844" clip-path="url(#clipPath6)" font-family="sans-serif" stroke="none" xml:space="preserve">JpaRepository&lt;T,ID&gt;</text>
    </g>
    <g stroke-dasharray="8,5" stroke-miterlimit="5" transform="translate(660,510)" stroke-linecap="butt">
      <path fill="none" d="M10.5 11.5 L10.5 30.5" clip-path="url(#clipPath7)"/>
      <path fill="white" d="M4 22.2583 L10.5 11 L17 22.2583 Z" clip-path="url(#clipPath7)" stroke="none"/>
      <path fill="none" stroke-miterlimit="10" stroke-dasharray="none" d="M4 22.2583 L10.5 11 L17 22.2583 Z" clip-path="url(#clipPath7)" stroke-linecap="square"/>
    </g>
    <g stroke-dasharray="8,5" stroke-miterlimit="5" transform="translate(660,410)" stroke-linecap="butt">
      <path fill="none" d="M10.5 11.5 L10.5 30.5" clip-path="url(#clipPath7)"/>
      <path fill="white" d="M4 22.2583 L10.5 11 L17 22.2583 Z" clip-path="url(#clipPath7)" stroke="none"/>
      <path fill="none" stroke-miterlimit="10" stroke-dasharray="none" d="M4 22.2583 L10.5 11 L17 22.2583 Z" clip-path="url(#clipPath7)" stroke-linecap="square"/>
    </g>
    <g stroke-dasharray="8,5" stroke-miterlimit="5" transform="translate(660,460)" stroke-linecap="butt">
      <path fill="none" d="M10.5 11.5 L10.5 30.5" clip-path="url(#clipPath7)"/>
      <path fill="white" d="M4 22.2583 L10.5 11 L17 22.2583 Z" clip-path="url(#clipPath7)" stroke="none"/>
      <path fill="none" stroke-miterlimit="10" stroke-dasharray="none" d="M4 22.2583 L10.5 11 L17 22.2583 Z" clip-path="url(#clipPath7)" stroke-linecap="square"/>
    </g>
    <g stroke-dasharray="8,5" stroke-miterlimit="5" transform="translate(660,310)" stroke-linecap="butt">
      <path fill="none" d="M10.5 11.5 L10.5 30.5" clip-path="url(#clipPath7)"/>
      <path fill="white" d="M4 22.2583 L10.5 11 L17 22.2583 Z" clip-path="url(#clipPath7)" stroke="none"/>
      <path fill="none" stroke-miterlimit="10" stroke-dasharray="none" d="M4 22.2583 L10.5 11 L17 22.2583 Z" clip-path="url(#clipPath7)" stroke-linecap="square"/>
    </g>
    <g stroke-dasharray="8,5" stroke-miterlimit="5" transform="translate(460,390)" stroke-linecap="butt">
      <path fill="none" d="M11.5 10.5 L130.5 10.5" clip-path="url(#clipPath8)"/>
      <path fill="white" d="M22.2583 17 L11 10.5 L22.2583 4 Z" clip-path="url(#clipPath8)" stroke="none"/>
      <path fill="none" stroke-miterlimit="10" stroke-dasharray="none" d="M22.2583 17 L11 10.5 L22.2583 4 Z" clip-path="url(#clipPath8)" stroke-linecap="square"/>
    </g>
    <g stroke-dasharray="8,5" stroke-miterlimit="5" transform="translate(660,260)" stroke-linecap="butt">
      <path fill="none" d="M10.5 11.5 L10.5 30.5" clip-path="url(#clipPath7)"/>
      <path fill="white" d="M4 22.2583 L10.5 11 L17 22.2583 Z" clip-path="url(#clipPath7)" stroke="none"/>
      <path fill="none" stroke-miterlimit="10" stroke-dasharray="none" d="M4 22.2583 L10.5 11 L17 22.2583 Z" clip-path="url(#clipPath7)" stroke-linecap="square"/>
    </g>
    <g stroke-dasharray="8,5" stroke-miterlimit="5" transform="translate(660,360)" stroke-linecap="butt">
      <path fill="none" d="M10.5 11.5 L10.5 30.5" clip-path="url(#clipPath7)"/>
      <path fill="white" d="M4 22.2583 L10.5 11 L17 22.2583 Z" clip-path="url(#clipPath7)" stroke="none"/>
      <path fill="none" stroke-miterlimit="10" stroke-dasharray="none" d="M4 22.2583 L10.5 11 L17 22.2583 Z" clip-path="url(#clipPath7)" stroke-linecap="square"/>
    </g>
  </g>
</svg>
