<?xml version="1.0" encoding="UTF-8"?><!DOCTYPE svg PUBLIC '-//W3C//DTD SVG 1.0//EN'
        'http://www.w3.org/TR/2001/REC-SVG-20010904/DTD/svg10.dtd'>
<svg fill-opacity="1" color-rendering="auto" color-interpolation="auto" text-rendering="auto" stroke="black" stroke-linecap="square" width="710" stroke-miterlimit="10" shape-rendering="auto" stroke-opacity="1" fill="black" stroke-dasharray="none" font-weight="normal" stroke-width="1" viewBox="320 320 710 230" height="230" xmlns="http://www.w3.org/2000/svg" font-family="'Dialog'" font-style="normal" stroke-linejoin="miter" font-size="12px" stroke-dashoffset="0" image-rendering="auto"><!--Generated by the Batik Graphics2D SVG Generator-->
  <defs id="genericDefs"/>
  <g>
    <defs id="defs1">
      <clipPath clipPathUnits="userSpaceOnUse" id="clipPath1">
        <path d="M0 0 L2147483647 0 L2147483647 2147483647 L0 2147483647 L0 0 Z"/>
      </clipPath>
      <clipPath clipPathUnits="userSpaceOnUse" id="clipPath2">
        <path d="M0 0 L0 30 L160 30 L160 0 Z"/>
      </clipPath>
      <clipPath clipPathUnits="userSpaceOnUse" id="clipPath3">
        <path d="M0 0 L0 30 L180 30 L180 0 Z"/>
      </clipPath>
      <clipPath clipPathUnits="userSpaceOnUse" id="clipPath4">
        <path d="M0 0 L0 50 L180 50 L180 0 Z"/>
      </clipPath>
      <clipPath clipPathUnits="userSpaceOnUse" id="clipPath5">
        <path d="M0 0 L0 30 L120 30 L120 0 Z"/>
      </clipPath>
      <clipPath clipPathUnits="userSpaceOnUse" id="clipPath6">
        <path d="M0 0 L0 70 L30 70 L30 0 Z"/>
      </clipPath>
      <clipPath clipPathUnits="userSpaceOnUse" id="clipPath7">
        <path d="M0 0 L0 90 L80 90 L80 0 Z"/>
      </clipPath>
      <clipPath clipPathUnits="userSpaceOnUse" id="clipPath8">
        <path d="M0 0 L0 40 L90 40 L90 0 Z"/>
      </clipPath>
      <clipPath clipPathUnits="userSpaceOnUse" id="clipPath9">
        <path d="M0 0 L0 50 L120 50 L120 0 Z"/>
      </clipPath>
    </defs>
    <g fill="rgb(140,211,225)" fill-opacity="0.4902" transform="translate(470,340)" stroke-opacity="0.4902" stroke="rgb(140,211,225)">
      <rect x="0.5" width="158.5" height="28.5" y="0.5" clip-path="url(#clipPath2)" stroke="none"/>
    </g>
    <g transform="translate(470,340)">
      <rect fill="none" x="0.5" width="158.5" height="28.5" y="0.5" clip-path="url(#clipPath2)"/>
      <text x="23" font-size="14px" y="17.9688" clip-path="url(#clipPath2)" font-family="sans-serif" font-style="italic" stroke="none" xml:space="preserve">GenericFilterBean</text>
    </g>
    <g fill="rgb(140,211,225)" fill-opacity="0.4902" transform="translate(830,500)" stroke-opacity="0.4902" stroke="rgb(140,211,225)">
      <rect x="0.5" width="178.5" height="28.5" y="0.5" clip-path="url(#clipPath3)" stroke="none"/>
    </g>
    <g transform="translate(830,500)">
      <rect fill="none" x="0.5" width="178.5" height="28.5" y="0.5" clip-path="url(#clipPath3)"/>
      <text x="8" font-size="14px" y="17.9688" clip-path="url(#clipPath3)" font-family="sans-serif" stroke="none" xml:space="preserve">DefaultSecurityFilterChain</text>
    </g>
    <g fill="rgb(145,203,123)" fill-opacity="0.4902" transform="translate(720,340)" stroke-opacity="0.4902" stroke="rgb(145,203,123)">
      <rect x="0.5" width="158.5" height="28.5" y="0.5" clip-path="url(#clipPath2)" stroke="none"/>
    </g>
    <g transform="translate(720,340)">
      <rect fill="none" x="0.5" width="158.5" height="28.5" y="0.5" clip-path="url(#clipPath2)"/>
      <text x="64" font-size="14px" y="17.9688" clip-path="url(#clipPath2)" font-family="sans-serif" stroke="none" xml:space="preserve">Filter</text>
    </g>
    <g fill="rgb(145,203,123)" fill-opacity="0.4902" transform="translate(830,410)" stroke-opacity="0.4902" stroke="rgb(145,203,123)">
      <rect x="0.5" width="178.5" height="48.5" y="0.5" clip-path="url(#clipPath4)" stroke="none"/>
    </g>
    <g transform="translate(830,410)">
      <rect fill="none" x="0.5" width="178.5" height="48.5" y="0.5" clip-path="url(#clipPath4)"/>
      <text x="30" font-size="14px" y="17.9688" clip-path="url(#clipPath4)" font-family="sans-serif" stroke="none" xml:space="preserve">SecurityFilterChain</text>
      <path fill="none" d="M1 23.9688 L179 23.9688" clip-path="url(#clipPath4)"/>
      <text x="5" font-size="14px" y="38.9375" clip-path="url(#clipPath4)" font-family="sans-serif" stroke="none" xml:space="preserve">this(String pattern, Filter...)</text>
    </g>
    <g fill="rgb(140,211,225)" fill-opacity="0.4902" transform="translate(590,410)" stroke-opacity="0.4902" stroke="rgb(140,211,225)">
      <rect x="0.5" width="178.5" height="48.5" y="0.5" clip-path="url(#clipPath4)" stroke="none"/>
    </g>
    <g transform="translate(590,410)">
      <rect fill="none" x="0.5" width="178.5" height="48.5" y="0.5" clip-path="url(#clipPath4)"/>
      <text x="38" font-size="14px" y="17.9688" clip-path="url(#clipPath4)" font-family="sans-serif" stroke="none" xml:space="preserve">FilterChainProxy</text>
      <path fill="none" d="M1 23.9688 L179 23.9688" clip-path="url(#clipPath4)"/>
      <text x="5" font-size="14px" y="38.9375" clip-path="url(#clipPath4)" font-family="sans-serif" stroke="none" xml:space="preserve">this(SecurityFilterChain...)</text>
    </g>
    <g fill="rgb(140,211,225)" fill-opacity="0.4902" transform="translate(340,410)" stroke-opacity="0.4902" stroke="rgb(140,211,225)">
      <rect x="0.5" width="158.5" height="28.5" y="0.5" clip-path="url(#clipPath2)" stroke="none"/>
    </g>
    <g transform="translate(340,410)">
      <rect fill="none" x="0.5" width="158.5" height="28.5" y="0.5" clip-path="url(#clipPath2)"/>
      <text x="13" font-size="14px" y="17.9688" clip-path="url(#clipPath2)" font-family="sans-serif" stroke="none" xml:space="preserve">DelegatingFilterProxy</text>
    </g>
    <g transform="translate(620,340)">
      <path fill="none" d="M10.5 10.5 L99.5 10.5" clip-path="url(#clipPath5)"/>
      <path fill="white" d="M88.7417 17 L100 10.5 L88.7417 4 Z" clip-path="url(#clipPath5)" stroke="none"/>
      <path fill="none" d="M88.7417 17 L100 10.5 L88.7417 4 Z" clip-path="url(#clipPath5)"/>
    </g>
    <g transform="translate(910,450)">
      <path fill="none" d="M10.5 50.5 L10.5 11.5" clip-path="url(#clipPath6)"/>
      <path fill="white" d="M17 22.2583 L10.5 11 L4 22.2583 Z" clip-path="url(#clipPath6)" stroke="none"/>
      <path fill="none" d="M17 22.2583 L10.5 11 L4 22.2583 Z" clip-path="url(#clipPath6)"/>
    </g>
    <g transform="translate(470,360)">
      <path fill="none" d="M10.5 50.5 L10.5 11.5" clip-path="url(#clipPath6)"/>
      <path fill="white" d="M17 22.2583 L10.5 11 L4 22.2583 Z" clip-path="url(#clipPath6)" stroke="none"/>
      <path fill="none" d="M17 22.2583 L10.5 11 L4 22.2583 Z" clip-path="url(#clipPath6)"/>
    </g>
    <g transform="translate(600,360)">
      <path fill="none" d="M10.5 50.5 L10.5 11.5" clip-path="url(#clipPath6)"/>
      <path fill="white" d="M17 22.2583 L10.5 11 L4 22.2583 Z" clip-path="url(#clipPath6)" stroke="none"/>
      <path fill="none" d="M17 22.2583 L10.5 11 L4 22.2583 Z" clip-path="url(#clipPath6)"/>
    </g>
    <g transform="translate(870,340)">
      <path fill="none" d="M50.5 70.5 L50.5 10.5" clip-path="url(#clipPath7)"/>
      <path fill="none" d="M50.5 10.5 L11.5 10.5" clip-path="url(#clipPath7)"/>
      <path d="M22.2583 4 L11 10.5 L22.2583 17 Z" clip-path="url(#clipPath7)" stroke="none"/>
      <path fill="none" d="M22.2583 4 L11 10.5 L22.2583 17 Z" clip-path="url(#clipPath7)"/>
      <text x="54" font-size="14px" y="54" clip-path="url(#clipPath7)" font-family="sans-serif" stroke="none" xml:space="preserve">1</text>
      <text x="29" font-size="14px" y="23.9688" clip-path="url(#clipPath7)" font-family="sans-serif" stroke="none" xml:space="preserve">*</text>
    </g>
    <g transform="translate(760,410)">
      <path fill="none" d="M10.5 10.5 L69.5 10.5" clip-path="url(#clipPath8)"/>
      <path d="M58.7417 17 L70 10.5 L58.7417 4 Z" clip-path="url(#clipPath8)" stroke="none"/>
      <path fill="none" d="M58.7417 17 L70 10.5 L58.7417 4 Z" clip-path="url(#clipPath8)"/>
      <text x="29" font-size="14px" y="23.9688" clip-path="url(#clipPath8)" font-family="sans-serif" stroke="none" xml:space="preserve">1</text>
      <text x="44.5518" font-size="14px" y="23.9688" clip-path="url(#clipPath8)" font-family="sans-serif" stroke="none" xml:space="preserve">*</text>
    </g>
    <g transform="translate(490,400)">
      <path fill="none" d="M10.5 20.5 L99.5 20.5" clip-path="url(#clipPath9)"/>
      <path d="M88.7417 27 L100 20.5 L88.7417 14 Z" clip-path="url(#clipPath9)" stroke="none"/>
      <path fill="none" d="M88.7417 27 L100 20.5 L88.7417 14 Z" clip-path="url(#clipPath9)"/>
      <text x="24.6416" font-size="14px" y="16" clip-path="url(#clipPath9)" font-family="sans-serif" stroke="none" xml:space="preserve">delegates</text>
      <text x="49.1621" font-size="14px" y="31.9688" clip-path="url(#clipPath9)" font-family="sans-serif" stroke="none" xml:space="preserve">to</text>
      <text x="29" font-size="14px" y="33.9688" clip-path="url(#clipPath9)" font-family="sans-serif" stroke="none" xml:space="preserve">1</text>
      <text x="72.2139" font-size="14px" y="33.9688" clip-path="url(#clipPath9)" font-family="sans-serif" stroke="none" xml:space="preserve">1</text>
    </g>
  </g>
</svg>
