<?xml version="1.0" encoding="UTF-8"?><!DOCTYPE svg PUBLIC '-//W3C//DTD SVG 1.0//EN'
        'http://www.w3.org/TR/2001/REC-SVG-20010904/DTD/svg10.dtd'>
<svg fill-opacity="1" color-rendering="auto" color-interpolation="auto" text-rendering="auto" stroke="black" stroke-linecap="square" width="480" stroke-miterlimit="10" shape-rendering="auto" stroke-opacity="1" fill="black" stroke-dasharray="none" font-weight="normal" stroke-width="1" viewBox="370 190 480 370" height="370" xmlns="http://www.w3.org/2000/svg" font-family="'Dialog'" font-style="normal" stroke-linejoin="miter" font-size="12px" stroke-dashoffset="0" image-rendering="auto"><!--Generated by the Batik Graphics2D SVG Generator-->
  <defs id="genericDefs"/>
  <g>
    <defs id="defs1">
      <clipPath clipPathUnits="userSpaceOnUse" id="clipPath1">
        <path d="M0 0 L2147483647 0 L2147483647 2147483647 L0 2147483647 L0 0 Z"/>
      </clipPath>
      <clipPath clipPathUnits="userSpaceOnUse" id="clipPath2">
        <path d="M0 0 L0 30 L20 30 L20 0 Z"/>
      </clipPath>
      <clipPath clipPathUnits="userSpaceOnUse" id="clipPath3">
        <path d="M0 0 L0 40 L90 40 L90 0 Z"/>
      </clipPath>
      <clipPath clipPathUnits="userSpaceOnUse" id="clipPath4">
        <path d="M0 0 L0 320 L80 320 L80 0 Z"/>
      </clipPath>
      <clipPath clipPathUnits="userSpaceOnUse" id="clipPath5">
        <path d="M0 0 L0 50 L190 50 L190 0 Z"/>
      </clipPath>
      <clipPath clipPathUnits="userSpaceOnUse" id="clipPath6">
        <path d="M0 0 L0 40 L190 40 L190 0 Z"/>
      </clipPath>
      <clipPath clipPathUnits="userSpaceOnUse" id="clipPath7">
        <path d="M0 0 L0 50 L130 50 L130 0 Z"/>
      </clipPath>
      <clipPath clipPathUnits="userSpaceOnUse" id="clipPath8">
        <path d="M0 0 L0 40 L130 40 L130 0 Z"/>
      </clipPath>
    </defs>
    <g font-family="sans-serif" font-size="14px" transform="translate(650,490)">
      <text x="5" xml:space="preserve" y="17.9688" clip-path="url(#clipPath2)" stroke="none">5</text>
    </g>
    <g font-family="sans-serif" font-size="14px" transform="translate(650,400)">
      <text x="5" xml:space="preserve" y="17.9688" clip-path="url(#clipPath2)" stroke="none">4</text>
    </g>
    <g font-family="sans-serif" font-size="14px" transform="translate(650,310)">
      <text x="5" xml:space="preserve" y="17.9688" clip-path="url(#clipPath2)" stroke="none">3</text>
    </g>
    <g font-family="sans-serif" font-size="14px" transform="translate(650,230)">
      <text x="5" xml:space="preserve" y="17.9688" clip-path="url(#clipPath2)" stroke="none">2</text>
    </g>
    <g fill="rgb(255,255,255)" fill-opacity="0" transform="translate(740,220)" stroke-opacity="0" stroke="rgb(255,255,255)">
      <rect x="0.5" width="88.5" height="38.5" y="0.5" clip-path="url(#clipPath3)" stroke="none"/>
    </g>
    <g transform="translate(740,220)">
      <rect fill="none" x="0.5" width="88.5" height="38.5" y="0.5" clip-path="url(#clipPath3)"/>
      <text x="20" font-size="14px" y="17.9688" clip-path="url(#clipPath3)" font-family="sans-serif" stroke="none" xml:space="preserve">Handler</text>
      <text x="18" font-size="14px" y="33.9375" clip-path="url(#clipPath3)" font-family="sans-serif" stroke="none" xml:space="preserve">Mapping</text>
    </g>
    <g fill="rgb(255,255,255)" fill-opacity="0" transform="translate(740,300)" stroke-opacity="0" stroke="rgb(255,255,255)">
      <rect x="0.5" width="88.5" height="38.5" y="0.5" clip-path="url(#clipPath3)" stroke="none"/>
    </g>
    <g transform="translate(740,300)">
      <rect fill="none" x="0.5" width="88.5" height="38.5" y="0.5" clip-path="url(#clipPath3)"/>
      <text x="14" font-size="14px" y="17.9688" clip-path="url(#clipPath3)" font-family="sans-serif" stroke="none" xml:space="preserve">Controller</text>
    </g>
    <g fill="rgb(255,255,255)" fill-opacity="0" transform="translate(740,480)" stroke-opacity="0" stroke="rgb(255,255,255)">
      <rect x="0.5" width="88.5" height="38.5" y="0.5" clip-path="url(#clipPath3)" stroke="none"/>
    </g>
    <g transform="translate(740,480)">
      <rect fill="none" x="0.5" width="88.5" height="38.5" y="0.5" clip-path="url(#clipPath3)"/>
      <text x="29" font-size="14px" y="17.9688" clip-path="url(#clipPath3)" font-family="sans-serif" stroke="none" xml:space="preserve">View</text>
    </g>
    <g fill="rgb(255,255,255)" fill-opacity="0" transform="translate(740,390)" stroke-opacity="0" stroke="rgb(255,255,255)">
      <rect x="0.5" width="88.5" height="38.5" y="0.5" clip-path="url(#clipPath3)" stroke="none"/>
    </g>
    <g transform="translate(740,390)">
      <rect fill="none" x="0.5" width="88.5" height="38.5" y="0.5" clip-path="url(#clipPath3)"/>
      <text x="29" font-size="14px" y="17.9688" clip-path="url(#clipPath3)" font-family="sans-serif" stroke="none" xml:space="preserve">View</text>
      <text x="17" font-size="14px" y="33.9375" clip-path="url(#clipPath3)" font-family="sans-serif" stroke="none" xml:space="preserve">Resolver</text>
    </g>
    <g fill="rgb(255,255,255)" fill-opacity="0" transform="translate(500,210)" stroke-opacity="0" stroke="rgb(255,255,255)">
      <rect x="0.5" width="78.5" height="318.5" y="0.5" clip-path="url(#clipPath4)" stroke="none"/>
    </g>
    <g transform="translate(500,210)">
      <rect fill="none" x="0.5" width="78.5" height="318.5" y="0.5" clip-path="url(#clipPath4)"/>
      <text x="6" font-size="14px" y="17.9688" clip-path="url(#clipPath4)" font-family="sans-serif" stroke="none" xml:space="preserve">Dispatcher</text>
      <text x="18" font-size="14px" y="33.9375" clip-path="url(#clipPath4)" font-family="sans-serif" stroke="none" xml:space="preserve">Servlet</text>
    </g>
    <g stroke-dasharray="8,5" stroke-miterlimit="5" transform="translate(570,230)" stroke-linecap="butt">
      <path fill="none" d="M11.5 20.5 L170.5 20.5" clip-path="url(#clipPath5)"/>
      <path d="M22.2583 27 L11 20.5 L22.2583 14 Z" clip-path="url(#clipPath5)" stroke="none"/>
      <path fill="none" stroke-miterlimit="10" stroke-dasharray="none" d="M22.2583 27 L11 20.5 L22.2583 14 Z" clip-path="url(#clipPath5)" stroke-linecap="square"/>
    </g>
    <g font-family="sans-serif" font-size="14px" transform="translate(570,230)">
      <text x="48.3691" xml:space="preserve" y="31.9688" clip-path="url(#clipPath5)" stroke="none">Controller obj</text>
    </g>
    <g transform="translate(570,210)">
      <path fill="none" d="M169.5 20.5 L10.5 20.5" clip-path="url(#clipPath6)"/>
      <path d="M158.7417 14 L170 20.5 L158.7417 27 Z" clip-path="url(#clipPath6)" stroke="none"/>
      <path fill="none" d="M158.7417 14 L170 20.5 L158.7417 27 Z" clip-path="url(#clipPath6)"/>
      <text x="66.6519" font-size="14px" y="16" clip-path="url(#clipPath6)" font-family="sans-serif" stroke="none" xml:space="preserve">request</text>
    </g>
    <g transform="translate(570,470)">
      <path fill="none" d="M169.5 20.5 L10.5 20.5" clip-path="url(#clipPath6)"/>
      <path d="M158.7417 14 L170 20.5 L158.7417 27 Z" clip-path="url(#clipPath6)" stroke="none"/>
      <path fill="none" d="M158.7417 14 L170 20.5 L158.7417 27 Z" clip-path="url(#clipPath6)"/>
      <text x="70.9346" font-size="14px" y="16" clip-path="url(#clipPath6)" font-family="sans-serif" stroke="none" xml:space="preserve">model</text>
    </g>
    <g stroke-dasharray="8,5" stroke-miterlimit="5" transform="translate(570,490)" stroke-linecap="butt">
      <path fill="none" d="M11.5 20.5 L170.5 20.5" clip-path="url(#clipPath5)"/>
      <path d="M22.2583 27 L11 20.5 L22.2583 14 Z" clip-path="url(#clipPath5)" stroke="none"/>
      <path fill="none" stroke-miterlimit="10" stroke-dasharray="none" d="M22.2583 27 L11 20.5 L22.2583 14 Z" clip-path="url(#clipPath5)" stroke-linecap="square"/>
    </g>
    <g font-family="sans-serif" font-size="14px" transform="translate(570,490)">
      <text x="69.7656" xml:space="preserve" y="31.9688" clip-path="url(#clipPath5)" stroke="none">render</text>
    </g>
    <g stroke-dasharray="8,5" stroke-miterlimit="5" transform="translate(570,310)" stroke-linecap="butt">
      <path fill="none" d="M11.5 20.5 L170.5 20.5" clip-path="url(#clipPath5)"/>
      <path d="M22.2583 27 L11 20.5 L22.2583 14 Z" clip-path="url(#clipPath5)" stroke="none"/>
      <path fill="none" stroke-miterlimit="10" stroke-dasharray="none" d="M22.2583 27 L11 20.5 L22.2583 14 Z" clip-path="url(#clipPath5)" stroke-linecap="square"/>
    </g>
    <g font-family="sans-serif" font-size="14px" transform="translate(570,310)">
      <text x="33.5864" xml:space="preserve" y="31.9688" clip-path="url(#clipPath5)" stroke="none">model, view name</text>
    </g>
    <g transform="translate(570,290)">
      <path fill="none" d="M169.5 20.5 L10.5 20.5" clip-path="url(#clipPath6)"/>
      <path d="M158.7417 14 L170 20.5 L158.7417 27 Z" clip-path="url(#clipPath6)" stroke="none"/>
      <path fill="none" d="M158.7417 14 L170 20.5 L158.7417 27 Z" clip-path="url(#clipPath6)"/>
      <text x="66.6519" font-size="14px" y="16" clip-path="url(#clipPath6)" font-family="sans-serif" stroke="none" xml:space="preserve">request</text>
    </g>
    <g transform="translate(390,380)">
      <path fill="none" d="M11.5 20.5 L110.5 20.5" clip-path="url(#clipPath7)"/>
      <path d="M22.2583 27 L11 20.5 L22.2583 14 Z" clip-path="url(#clipPath7)" stroke="none"/>
      <path fill="none" d="M22.2583 27 L11 20.5 L22.2583 14 Z" clip-path="url(#clipPath7)"/>
      <text x="23.4209" font-size="14px" y="31.9688" clip-path="url(#clipPath7)" font-family="sans-serif" stroke="none" xml:space="preserve">6: response</text>
    </g>
    <g transform="translate(390,360)">
      <path fill="none" d="M109.5 20.5 L10.5 20.5" clip-path="url(#clipPath8)"/>
      <path d="M98.7417 14 L110 20.5 L98.7417 27 Z" clip-path="url(#clipPath8)" stroke="none"/>
      <path fill="none" d="M98.7417 14 L110 20.5 L98.7417 27 Z" clip-path="url(#clipPath8)"/>
      <text x="28.8691" font-size="14px" y="16" clip-path="url(#clipPath8)" font-family="sans-serif" stroke="none" xml:space="preserve">1: request</text>
    </g>
    <g stroke-dasharray="8,5" stroke-miterlimit="5" transform="translate(570,400)" stroke-linecap="butt">
      <path fill="none" d="M11.5 20.5 L170.5 20.5" clip-path="url(#clipPath5)"/>
      <path d="M22.2583 27 L11 20.5 L22.2583 14 Z" clip-path="url(#clipPath5)" stroke="none"/>
      <path fill="none" stroke-miterlimit="10" stroke-dasharray="none" d="M22.2583 27 L11 20.5 L22.2583 14 Z" clip-path="url(#clipPath5)" stroke-linecap="square"/>
    </g>
    <g font-family="sans-serif" font-size="14px" transform="translate(570,400)">
      <text x="63.5415" xml:space="preserve" y="31.9688" clip-path="url(#clipPath5)" stroke="none">View obj</text>
    </g>
    <g transform="translate(570,380)">
      <path fill="none" d="M169.5 20.5 L10.5 20.5" clip-path="url(#clipPath6)"/>
      <path d="M158.7417 14 L170 20.5 L158.7417 27 Z" clip-path="url(#clipPath6)" stroke="none"/>
      <path fill="none" d="M158.7417 14 L170 20.5 L158.7417 27 Z" clip-path="url(#clipPath6)"/>
      <text x="56.5415" font-size="14px" y="16" clip-path="url(#clipPath6)" font-family="sans-serif" stroke="none" xml:space="preserve">view name</text>
    </g>
  </g>
</svg>
